<?xml version="1.0" standalone="no"?>
<!DOCTYPE svg PUBLIC "-//W3C//DTD SVG 20010904//EN"
 "http://www.w3.org/TR/2001/REC-SVG-20010904/DTD/svg10.dtd">
<svg version="1.0" xmlns="http://www.w3.org/2000/svg"
 width="1024.000000pt" height="1024.000000pt" viewBox="0 0 1024.000000 1024.000000"
 preserveAspectRatio="xMidYMid meet">
<metadata>
Created by potrace 1.15, written by Peter Selinger 2001-2017
</metadata>
<g transform="translate(0.000000,1024.000000) scale(0.100000,-0.100000)"
fill="#000000" stroke="none">
<path d="M4925 10114 c-562 -34 -977 -112 -1430 -268 -1119 -384 -2075 -1163
-2677 -2181 -385 -652 -608 -1352 -679 -2135 -16 -174 -16 -646 0 -820 97
-1062 475 -1983 1150 -2800 122 -148 473 -499 621 -621 818 -676 1753 -1059
2805 -1150 180 -16 630 -16 810 0 1051 91 1988 475 2805 1150 148 122 499 473
621 621 675 817 1058 1751 1150 2805 16 180 16 641 0 815 -88 973 -420 1843
-994 2604 -263 348 -624 709 -973 973 -757 572 -1650 913 -2600 993 -132 11
-514 20 -609 14z m463 -145 c446 -48 900 -237 1259 -525 399 -319 700 -789
828 -1288 18 -72 41 -180 50 -241 23 -148 31 -442 16 -591 -106 -1039 -836
-1885 -1842 -2133 -181 -45 -315 -61 -579 -71 -129 -5 -285 -16 -345 -25 -920
-134 -1684 -779 -1969 -1663 -86 -268 -111 -430 -111 -742 0 -275 12 -380 70
-606 85 -331 250 -660 468 -930 368 -455 930 -778 1512 -870 73 -11 76 -12 30
-13 -64 -1 -284 23 -445 49 -693 113 -1375 387 -1957 787 -395 271 -762 613
-1065 993 -545 683 -904 1533 -1012 2400 -50 396 -50 844 0 1240 179 1431
1011 2730 2244 3503 661 414 1413 663 2195 726 150 12 542 12 653 0z m-69
-6674 c246 -78 422 -307 438 -570 17 -289 -161 -549 -442 -646 -93 -32 -289
-35 -375 -5 -175 59 -315 177 -389 326 -54 111 -75 208 -68 326 17 297 235
540 535 594 77 14 211 3 301 -25z"/>
<path d="M4995 8180 c-313 -68 -530 -349 -512 -666 9 -157 69 -293 182 -408
73 -75 155 -126 260 -162 69 -24 95 -28 195 -27 97 0 128 4 197 27 250 82 424
308 440 571 16 284 -160 548 -431 642 -78 27 -255 40 -331 23z"/>
</g>
</svg>
